# xmcd
#
# Track frame offsets:
#	150
#	48896
#	69882
#	107032
#	118308
#	140644
#	175146
#	191268
#	215002
#	243546
#	266363
#	305322
#
# Disc length: 4425 seconds
#
# Revision: 0
# Processed by: cddbd v1.5.2PL0 Copyright (c) Steve Scherf et al.
# Submitted via: EZCDAudioConverter 1.3.4.1
#
DISCID=aa11470c
DTITLE=V/A - Freedom Rhythm and Sound 1/2
DYEAR=1900
DGENRE=
TTITLE0=Oliver Lake - Africa
TTITLE1=Stanton Davis' Ghetto - Space-A-Nova
TTITLE2=Steve Colson and The Unity Troupe - Lateen
TTITLE3=Mary Lou Williams - Miss D.D.
TTITLE4=Joe Henderson - Foregone Conclusion
TTITLE5=Art Ensemble Of Chicago - Old Time Religion
TTITLE6=Philip Cohran and The Artistic Heritage Ensemble - The African Look
TTITLE7=Gary Bartz Ntu Troop - The Drinking Song 
TTITLE8=Pheeroan Ak Laff  - 3 In 1
TTITLE9=Hastings Street Jazz Experience - Yes Lord
TTITLE10=Gato Barbieri and Dollar Brand - 81st Street 
TTITLE11=Ralph Thomas - Big Spliff 
EXTD=
EXTT0=
EXTT1=
EXTT2=
EXTT3=
EXTT4=
EXTT5=
EXTT6=
EXTT7=
EXTT8=
EXTT9=
EXTT10=
EXTT11=
PLAYORDER=
